<svg height="464pt" viewBox="0 0 464.01223 464" width="464pt" xmlns="http://www.w3.org/2000/svg"><path d="m447.964844 199.429688c-32.585938-.007813-59.960938-24.503907-63.582032-56.886719-22.421874 13.285156-50.667968 11.613281-71.363281-4.222657-20.695312-15.839843-29.691406-42.664062-22.726562-67.777343-3.414063.574219-6.867188.871093-10.328125.886719-35.347656 0-64-28.652344-64-64 .011718-2.480469.167968-4.960938.464844-7.4218755-95.265626 6.4062495-176.878907 70.5273435-205.648438 161.5703125s1.179688 190.414063 75.464844 250.402344 177.734375 68.335937 260.675781 21.039062c82.945313-47.296875 128.441406-140.582031 114.644531-235.0625-4.46875.976563-9.027344 1.46875-13.601562 1.472657zm0 0" fill="#a65c2e"/><path d="m461.566406 197.957031c-17.699218 3.867188-36.203125.039063-50.914062-10.527343-14.710938-10.570313-24.246094-26.882813-26.230469-44.886719-7.570313 4.457031-15.980469 7.304687-24.703125 8.359375-6.148438 143.417968-124.203125 256.527344-267.753906 256.527344-3.824219 0-7.617188-.128907-11.390625-.289063 73.320312 63.277344 178.242187 74.324219 263.136719 27.714844 84.894531-46.613281 131.886718-141.070313 117.855468-236.898438zm0 0" fill="#964c1e"/><g fill="#663318"><path d="m239.964844 199.429688c0 17.671874-14.328125 32-32 32s-32-14.328126-32-32c0-17.671876 14.328125-32 32-32s32 14.328124 32 32zm0 0"/><path d="m183.964844 359.429688c0 17.671874-14.328125 32-32 32s-32-14.328126-32-32c0-17.671876 14.328125-32 32-32s32 14.328124 32 32zm0 0"/><path d="m359.964844 359.429688c0 17.671874-14.328125 32-32 32s-32-14.328126-32-32c0-17.671876 14.328125-32 32-32s32 14.328124 32 32zm0 0"/></g><path d="m95.964844 231.429688c0 8.835937-7.164063 16-16 16-8.835938 0-16-7.164063-16-16 0-8.835938 7.164062-16 16-16 8.835937 0 16 7.164062 16 16zm0 0" fill="#854219"/><path d="m287.964844 311.429688c0 8.835937-7.164063 16-16 16-8.835938 0-16-7.164063-16-16 0-8.835938 7.164062-16 16-16 8.835937 0 16 7.164062 16 16zm0 0" fill="#854219"/><path d="m375.964844 215.429688c0 8.835937-7.164063 16-16 16-8.835938 0-16-7.164063-16-16 0-8.835938 7.164062-16 16-16 8.835937 0 16 7.164062 16 16zm0 0" fill="#854219"/><path d="m124.636719 81.949219-9.34375-12.984375c7.949219-5.714844 16.304687-10.839844 25-15.335938l7.34375 14.226563c-8 4.128906-15.6875 8.839843-23 14.09375zm0 0" fill="#c47747"/><path d="m55.917969 177.757812-15.3125-4.65625c10.679687-34.984374 30.746093-66.371093 58.023437-90.742187l10.671875 11.917969c-25.09375 22.421875-43.558593 51.296875-53.382812 83.480468zm0 0" fill="#c47747"/></svg>