<?xml version="1.0" encoding="UTF-8"?>
<svg width="32px" height="32px" viewBox="0 0 32 32" version="1.1" xmlns="http://www.w3.org/2000/svg" xmlns:xlink="http://www.w3.org/1999/xlink">
    <!-- Generator: Sketch 52.6 (67491) - http://www.bohemiancoding.com/sketch -->
    <title>Artboard</title>
    <desc>Created with Sketch.</desc>
    <g id="Artboard" stroke="none" stroke-width="1" fill="none" fill-rule="evenodd">
        <g id="cookie" transform="translate(4.000000, 4.000000)">
            <path d="M23.1226529,10.2710569 C21.4444072,10.2706545 20.0345359,9.0090531 19.8480418,7.34126879 C18.6932672,8.02548283 17.2385327,7.93937768 16.1726797,7.12379289 C15.1068267,6.30800699 14.6435086,4.92650215 15.002213,3.63311428 C14.8263814,3.66268779 14.6485381,3.67797744 14.4702924,3.67878221 C12.6498123,3.67878221 11.1741551,2.20312501 11.1741551,0.382644876 C11.1747586,0.254895399 11.1828058,0.127145923 11.1980955,0.000402360515 C6.29171135,0.330337957 2.08845224,3.6327119 0.606759657,8.32162017 C-0.874932927,13.0105284 0.66751612,18.128353 4.49336106,21.2178782 C8.31920601,24.3074034 13.6470628,24.7373256 17.9187232,22.3014351 C22.1905848,19.8655445 24.5337312,15.0611588 23.8231625,10.1952119 C23.5930123,10.245507 23.358235,10.2708557 23.1226529,10.2710569 Z" id="Path" fill="#A65C2E"></path>
            <path d="M23.8231625,10.1952119 C22.9116148,10.3943804 21.9586239,10.1972237 21.2009791,9.65303114 C20.4433342,9.10863734 19.9522532,8.26850858 19.8500536,7.34126879 C19.4601663,7.57081545 19.0270252,7.71747585 18.5777897,7.77179454 C18.2611319,15.1581277 12.1810622,20.9835032 4.78788896,20.9835032 C4.59093348,20.9835032 4.39558743,20.9768643 4.20124733,20.9686159 C7.97740074,24.2275349 13.3811025,24.7964727 17.753353,22.3959898 C22.1256036,19.9953058 24.545802,15.130566 23.8231625,10.1952119 Z" id="Path" fill="#964C1E"></path>
            <g id="Group" transform="translate(6.180258, 8.600858)" fill="#663318">
                <path d="M6.22994905,1.67019852 C6.22994905,2.58033796 5.49201986,3.31826719 4.58188038,3.31826719 C3.67174089,3.31826719 2.93381171,2.58033796 2.93381171,1.67019852 C2.93381171,0.760058987 3.67174089,0.0221298541 4.58188038,0.0221298541 C5.49201986,0.0221298541 6.22994905,0.760058987 6.22994905,1.67019852 Z" id="Path"></path>
                <path d="M3.34582888,9.91054187 C3.34582888,10.8206813 2.60789969,11.5586105 1.69776021,11.5586105 C0.787620721,11.5586105 0.0496915365,10.8206813 0.0496915365,9.91054187 C0.0496915365,9.00040233 0.787620721,8.2624732 1.69776021,8.2624732 C2.60789969,8.2624732 3.34582888,9.00040233 3.34582888,9.91054187 Z" id="Path"></path>
                <path d="M12.4102066,9.91054187 C12.4102066,10.8206813 11.6722774,11.5586105 10.7621379,11.5586105 C9.8519984,11.5586105 9.11406922,10.8206813 9.11406922,9.91054187 C9.11406922,9.00040233 9.8519984,8.2624732 10.7621379,8.2624732 C11.6722774,8.2624732 12.4102066,9.00040233 12.4102066,9.91054187 Z" id="Path"></path>
            </g>
            <path d="M4.99389755,11.9191256 C4.99389755,12.3741953 4.62493293,12.7431599 4.16986321,12.7431599 C3.71479344,12.7431599 3.34582888,12.3741953 3.34582888,11.9191256 C3.34582888,11.4640558 3.71479344,11.0950912 4.16986321,11.0950912 C4.62493293,11.0950912 4.99389755,11.4640558 4.99389755,11.9191256 Z" id="Path" fill="#854219"></path>
            <path d="M14.8823096,16.0392972 C14.8823096,16.494367 14.5133449,16.8633316 14.0582752,16.8633316 C13.6032055,16.8633316 13.2342409,16.494367 13.2342409,16.0392972 C13.2342409,15.5842275 13.6032055,15.2152629 14.0582752,15.2152629 C14.5133449,15.2152629 14.8823096,15.5842275 14.8823096,16.0392972 Z" id="Path" fill="#854219"></path>
            <path d="M19.4144984,11.0950912 C19.4144984,11.5501609 19.0455338,11.9191256 18.5904641,11.9191256 C18.1353943,11.9191256 17.7664297,11.5501609 17.7664297,11.0950912 C17.7664297,10.6400215 18.1353943,10.2710569 18.5904641,10.2710569 C19.0455338,10.2710569 19.4144984,10.6400215 19.4144984,11.0950912 Z" id="Path" fill="#854219"></path>
            <path d="M6.47056064,4.22056064 L5.98933746,3.55183746 C6.3987393,3.25751073 6.82906383,2.99356223 7.27689111,2.76200374 L7.65510999,3.49470227 C7.24309282,3.70734979 6.84717008,3.94997315 6.47056064,4.22056064 Z" id="Path" fill="#C47747"></path>
            <path d="M2.93139755,9.15490877 L2.14277094,8.91510191 C2.69279773,7.11333157 3.7262607,5.49684819 5.13110245,4.24168455 L5.68072692,4.85548553 C4.38834494,6.01026021 3.43736591,7.49738467 2.93139755,9.15490877 Z" id="Path" fill="#C47747"></path>
        </g>
    </g>
</svg>